<?xml version="1.0" encoding="UTF-8" standalone="no"?>
<!-- Created with Inkscape (http://www.inkscape.org/) -->

<svg
   width="720"
   height="480"
   viewBox="0 0 190.5 127"
   version="1.1"
   id="svg5"
   inkscape:version="1.1 (c68e22c387, 2021-05-23)"
   sodipodi:docname="坐标曲线积分例题.svg"
   inkscape:export-filename="C:\Users\xiayulu\Desktop\notes\课程\高等数学\10重积分\坐标曲线积分例题.png"
   inkscape:export-xdpi="96"
   inkscape:export-ydpi="96"
   xmlns:inkscape="http://www.inkscape.org/namespaces/inkscape"
   xmlns:sodipodi="http://sodipodi.sourceforge.net/DTD/sodipodi-0.dtd"
   xmlns="http://www.w3.org/2000/svg"
   xmlns:svg="http://www.w3.org/2000/svg"
   xmlns:ns0="http://www.iki.fi/pav/software/textext/">
  <sodipodi:namedview
     id="namedview7"
     pagecolor="#ffffff"
     bordercolor="#666666"
     borderopacity="1.0"
     inkscape:pageshadow="2"
     inkscape:pageopacity="0.0"
     inkscape:pagecheckerboard="0"
     inkscape:document-units="px"
     showgrid="false"
     units="px"
     inkscape:zoom="1.6017536"
     inkscape:cx="49.94526"
     inkscape:cy="252.22356"
     inkscape:window-width="3840"
     inkscape:window-height="2066"
     inkscape:window-x="-11"
     inkscape:window-y="-11"
     inkscape:window-maximized="1"
     inkscape:current-layer="layer1" />
  <defs
     id="defs2">
    <marker
       style="overflow:visible"
       id="Arrow1Mstart"
       refX="0.0"
       refY="0.0"
       orient="auto"
       inkscape:stockid="Arrow1Mstart"
       inkscape:isstock="true">
      <path
         transform="scale(0.4) translate(10,0)"
         style="fill-rule:evenodd;fill:context-stroke;stroke:context-stroke;stroke-width:1.0pt"
         d="M 0.0,0.0 L 5.0,-5.0 L -12.5,0.0 L 5.0,5.0 L 0.0,0.0 z "
         id="path2246" />
    </marker>
    <marker
       style="overflow:visible;"
       id="marker2503"
       refX="0.0"
       refY="0.0"
       orient="auto"
       inkscape:stockid="Arrow1Mend"
       inkscape:isstock="true">
      <path
         transform="scale(0.4) rotate(180) translate(10,0)"
         style="fill-rule:evenodd;fill:context-stroke;stroke:context-stroke;stroke-width:1.0pt;"
         d="M 0.0,0.0 L 5.0,-5.0 L -12.5,0.0 L 5.0,5.0 L 0.0,0.0 z "
         id="path2249" />
    </marker>
    <marker
       style="overflow:visible;"
       id="marker1301"
       refX="0.0"
       refY="0.0"
       orient="auto"
       inkscape:stockid="Arrow1Mend"
       inkscape:isstock="true">
      <path
         transform="scale(0.4) rotate(180) translate(10,0)"
         style="fill-rule:evenodd;fill:context-stroke;stroke:context-stroke;stroke-width:1.0pt;"
         d="M 0.0,0.0 L 5.0,-5.0 L -12.5,0.0 L 5.0,5.0 L 0.0,0.0 z "
         id="path1299" />
    </marker>
    <marker
       style="overflow:visible;"
       id="Arrow1Mend"
       refX="0.0"
       refY="0.0"
       orient="auto"
       inkscape:stockid="Arrow1Mend"
       inkscape:isstock="true">
      <path
         transform="scale(0.4) rotate(180) translate(10,0)"
         style="fill-rule:evenodd;fill:context-stroke;stroke:context-stroke;stroke-width:1.0pt;"
         d="M 0.0,0.0 L 5.0,-5.0 L -12.5,0.0 L 5.0,5.0 L 0.0,0.0 z "
         id="path1040" />
    </marker>
  </defs>
  <g
     inkscape:label="图层 1"
     inkscape:groupmode="layer"
     id="layer1">
    <path
       style="fill:none;stroke:#000000;stroke-width:0.264583;stroke-linecap:butt;stroke-linejoin:miter;stroke-miterlimit:4;stroke-dasharray:none;stroke-opacity:1;marker-mid:url(#Arrow1Mend);marker-end:url(#marker1301)"
       d="M 32.679381,86.556173 H 88.786154 158.90656"
       id="path929"
       sodipodi:nodetypes="ccc" />
    <path
       style="fill:none;stroke:#000000;stroke-width:0.264583;stroke-linecap:butt;stroke-linejoin:miter;stroke-miterlimit:4;stroke-dasharray:none;stroke-opacity:1;marker-mid:url(#Arrow1Mstart);marker-end:url(#Arrow1Mend);paint-order:fill markers stroke"
       d="M 65.412679,112.89503 V 56.575363 14.866517"
       id="path931"
       sodipodi:nodetypes="ccc" />
    <text
       xml:space="preserve"
       style="font-style:normal;font-weight:normal;font-size:10.5833px;line-height:1.25;font-family:sans-serif;fill:#000000;fill-opacity:1;stroke:none;stroke-width:0.264583"
       x="65.412674"
       y="14.866517"
       id="text3709"><tspan
         sodipodi:role="line"
         id="tspan3707"
         style="stroke-width:0.264583"
         x="65.412674"
         y="14.866517" /></text>
    <g
       transform="matrix(1.05833,0,0,1.05833,54.49827,91.309285)"
       ns0:version="1.4.0"
       ns0:texconverter="pdflatex"
       ns0:pdfconverter="inkscape"
       ns0:text="$O$\n"
       ns0:preamble="default_packages.tex"
       ns0:scale="3.0"
       ns0:alignment="middle center"
       ns0:inkscapeversion="1.1"
       ns0:jacobian_sqrt="1.05833"
       id="g1431">
      <defs
         id="id-ae67f366-5f8f-4652-89d0-82cc75ba1a6b">
        <g
           id="id-4bcca1cd-32db-4954-869b-27f43487573b">
          <symbol
             overflow="visible"
             id="id-902f57ee-dc63-4f53-9333-6c3c8cd5e991">
            <path
               style="stroke:none;stroke-width:0"
               d=""
               id="id-2dadf355-396b-420e-a6e5-de567f848ff8" />
          </symbol>
          <symbol
             overflow="visible"
             id="id-79c94680-7207-431d-b12f-82cd95c5bbe4">
            <path
               style="stroke:none;stroke-width:0"
               d="m 7.375,-4.34375 c 0,-1.609375 -1.0625,-2.6875 -2.546875,-2.6875 -2.140625,0 -4.34375,2.265625 -4.34375,4.59375 0,1.65625 1.125,2.65625 2.5625,2.65625 2.109375,0 4.328125,-2.1875 4.328125,-4.5625 z m -4.28125,4.296875 c -0.984375,0 -1.671875,-0.796875 -1.671875,-2.109375 0,-0.453125 0.140625,-1.90625 0.90625,-3.0625 0.6875,-1.046875 1.65625,-1.5625 2.453125,-1.5625 0.8125,0 1.703125,0.5625 1.703125,2.046875 0,0.71875 -0.265625,2.265625 -1.25,3.5 C 4.75,-0.625 3.9375,-0.046875 3.09375,-0.046875 Z m 0,0"
               id="id-cf25f0f3-3f95-4606-a044-f8fb99699415" />
          </symbol>
        </g>
      </defs>
      <g
         id="id-fc4ee26e-8c42-4385-aa89-0f245ad7461b"
         transform="translate(-149.196,-127.734)">
        <g
           style="fill:#000000"
           id="id-0c1f916e-3d5f-4f03-9a49-ae09b3ae5c50">
          <g
             id="id-3d32febb-34e4-436e-a232-d56b137b827e"
             transform="translate(148.712,134.765)">
            <path
               style="color:#000000;-inkscape-stroke:none"
               d="m 7.375,-4.34375 c 0,-1.609375 -1.0625,-2.6875 -2.546875,-2.6875 -2.140625,0 -4.34375,2.265625 -4.34375,4.59375 0,1.65625 1.125,2.65625 2.5625,2.65625 2.109375,0 4.328125,-2.1875 4.328125,-4.5625 z m -4.28125,4.296875 c -0.984375,0 -1.671875,-0.796875 -1.671875,-2.109375 0,-0.453125 0.140625,-1.90625 0.90625,-3.0625 0.6875,-1.046875 1.65625,-1.5625 2.453125,-1.5625 0.8125,0 1.703125,0.5625 1.703125,2.046875 0,0.71875 -0.265625,2.265625 -1.25,3.5 C 4.75,-0.625 3.9375,-0.046875 3.09375,-0.046875 Z m 0,0"
               id="id-3c6b1d50-43aa-4203-ad0f-e18db23b48e0" />
          </g>
        </g>
      </g>
    </g>
    <g
       transform="matrix(1.05833,0,0,1.05833,152.81668,90.113264)"
       ns0:version="1.4.0"
       ns0:texconverter="pdflatex"
       ns0:pdfconverter="inkscape"
       ns0:text="$x$\n"
       ns0:preamble="default_packages.tex"
       ns0:scale="3.0"
       ns0:alignment="middle center"
       ns0:inkscapeversion="1.1"
       ns0:jacobian_sqrt="1.05833"
       id="g1642">
      <defs
         id="id-745df700-b875-4070-b55f-2efa9f412700">
        <g
           id="id-335dcd93-8075-497a-a328-72b5559356b0">
          <symbol
             overflow="visible"
             id="id-b163606d-c6e1-4cf2-9ac7-40fe245743f3">
            <path
               style="stroke:none;stroke-width:0"
               d=""
               id="id-21624681-6a2b-447f-88f1-f9ab9a1bce89" />
          </symbol>
          <symbol
             overflow="visible"
             id="id-15852f5c-d5d9-44cf-9f85-b5f688e01d1b">
            <path
               style="stroke:none;stroke-width:0"
               d="M 3.328125,-3.015625 C 3.390625,-3.265625 3.625,-4.1875 4.3125,-4.1875 c 0.046875,0 0.296875,0 0.5,0.125 C 4.53125,-4 4.34375,-3.765625 4.34375,-3.515625 c 0,0.15625 0.109375,0.34375 0.375,0.34375 0.21875,0 0.53125,-0.171875 0.53125,-0.578125 0,-0.515625 -0.578125,-0.65625 -0.921875,-0.65625 -0.578125,0 -0.921875,0.53125 -1.046875,0.75 -0.25,-0.65625 -0.78125,-0.75 -1.078125,-0.75 -1.03125,0 -1.609375,1.28125 -1.609375,1.53125 0,0.109375 0.109375,0.109375 0.125,0.109375 0.078125,0 0.109375,-0.03125 0.125,-0.109375 0.34375,-1.0625 1,-1.3125 1.34375,-1.3125 0.1875,0 0.53125,0.09375 0.53125,0.671875 0,0.3125 -0.171875,0.96875 -0.53125,2.375 -0.15625,0.609375 -0.515625,1.03125 -0.953125,1.03125 -0.0625,0 -0.28125,0 -0.5,-0.125 0.25,-0.0625 0.46875,-0.265625 0.46875,-0.546875 0,-0.265625 -0.21875,-0.34375 -0.359375,-0.34375 -0.3125,0 -0.546875,0.25 -0.546875,0.578125 0,0.453125 0.484375,0.65625 0.921875,0.65625 0.671875,0 1.03125,-0.703125 1.046875,-0.75 0.125,0.359375 0.484375,0.75 1.078125,0.75 1.03125,0 1.59375,-1.28125 1.59375,-1.53125 0,-0.109375 -0.078125,-0.109375 -0.109375,-0.109375 -0.09375,0 -0.109375,0.046875 -0.140625,0.109375 -0.328125,1.078125 -1,1.3125 -1.3125,1.3125 -0.390625,0 -0.546875,-0.3125 -0.546875,-0.65625 0,-0.21875 0.046875,-0.4375 0.15625,-0.875 z m 0,0"
               id="id-02230476-dbc5-4648-b496-759ba3e63948" />
          </symbol>
        </g>
      </defs>
      <g
         id="id-f42107b5-e731-4193-a654-fe969d587e8c"
         transform="translate(-149.009,-130.359)">
        <g
           style="fill:#000000"
           id="id-6d42f197-eb32-41c1-802c-22abce7e7464">
          <g
             id="id-8a6523ce-4d86-4809-8ca0-acd12ebcd8cf"
             transform="translate(148.712,134.765)">
            <path
               style="color:#000000;-inkscape-stroke:none"
               d="M 3.328125,-3.015625 C 3.390625,-3.265625 3.625,-4.1875 4.3125,-4.1875 c 0.046875,0 0.296875,0 0.5,0.125 C 4.53125,-4 4.34375,-3.765625 4.34375,-3.515625 c 0,0.15625 0.109375,0.34375 0.375,0.34375 0.21875,0 0.53125,-0.171875 0.53125,-0.578125 0,-0.515625 -0.578125,-0.65625 -0.921875,-0.65625 -0.578125,0 -0.921875,0.53125 -1.046875,0.75 -0.25,-0.65625 -0.78125,-0.75 -1.078125,-0.75 -1.03125,0 -1.609375,1.28125 -1.609375,1.53125 0,0.109375 0.109375,0.109375 0.125,0.109375 0.078125,0 0.109375,-0.03125 0.125,-0.109375 0.34375,-1.0625 1,-1.3125 1.34375,-1.3125 0.1875,0 0.53125,0.09375 0.53125,0.671875 0,0.3125 -0.171875,0.96875 -0.53125,2.375 -0.15625,0.609375 -0.515625,1.03125 -0.953125,1.03125 -0.0625,0 -0.28125,0 -0.5,-0.125 0.25,-0.0625 0.46875,-0.265625 0.46875,-0.546875 0,-0.265625 -0.21875,-0.34375 -0.359375,-0.34375 -0.3125,0 -0.546875,0.25 -0.546875,0.578125 0,0.453125 0.484375,0.65625 0.921875,0.65625 0.671875,0 1.03125,-0.703125 1.046875,-0.75 0.125,0.359375 0.484375,0.75 1.078125,0.75 1.03125,0 1.59375,-1.28125 1.59375,-1.53125 0,-0.109375 -0.078125,-0.109375 -0.109375,-0.109375 -0.09375,0 -0.109375,0.046875 -0.140625,0.109375 -0.328125,1.078125 -1,1.3125 -1.3125,1.3125 -0.390625,0 -0.546875,-0.3125 -0.546875,-0.65625 0,-0.21875 0.046875,-0.4375 0.15625,-0.875 z m 0,0"
               id="id-8610678d-9501-4013-9d5d-bfecf28cf610" />
          </g>
        </g>
      </g>
    </g>
    <g
       transform="matrix(1.05833,0,0,1.05833,57.200439,15.416183)"
       ns0:version="1.4.0"
       ns0:texconverter="pdflatex"
       ns0:pdfconverter="inkscape"
       ns0:text="$y$\n"
       ns0:preamble="default_packages.tex"
       ns0:scale="3.0"
       ns0:alignment="middle center"
       ns0:inkscapeversion="1.1"
       ns0:jacobian_sqrt="1.05833"
       id="g1853">
      <defs
         id="id-606678d4-b74b-4f1a-acf8-3b386da97bb5">
        <g
           id="id-fce39b7d-a519-4d18-8d44-495d2e673b7d">
          <symbol
             overflow="visible"
             id="id-fdba2970-80b3-478f-946d-4a9bcda6da80">
            <path
               style="stroke:none;stroke-width:0"
               d=""
               id="id-ea3b2e3b-5508-45ad-9500-14781b0ee277" />
          </symbol>
          <symbol
             overflow="visible"
             id="id-8c75c1e2-bcc8-4cca-a0d6-10b2c68ca760">
            <path
               style="stroke:none;stroke-width:0"
               d="m 4.84375,-3.796875 c 0.046875,-0.140625 0.046875,-0.15625 0.046875,-0.234375 0,-0.171875 -0.140625,-0.265625 -0.296875,-0.265625 -0.09375,0 -0.25,0.0625 -0.34375,0.203125 -0.015625,0.0625 -0.109375,0.359375 -0.140625,0.546875 -0.078125,0.25 -0.140625,0.53125 -0.203125,0.796875 l -0.453125,1.796875 c -0.03125,0.140625 -0.46875,0.84375 -1.125,0.84375 -0.5,0 -0.609375,-0.4375 -0.609375,-0.8125 C 1.71875,-1.375 1.890625,-2 2.21875,-2.875 2.375,-3.28125 2.421875,-3.390625 2.421875,-3.59375 c 0,-0.4375 -0.3125,-0.8125 -0.8125,-0.8125 -0.953125,0 -1.3125,1.453125 -1.3125,1.53125 0,0.109375 0.09375,0.109375 0.109375,0.109375 0.109375,0 0.109375,-0.03125 0.15625,-0.1875 0.28125,-0.9375 0.671875,-1.234375 1.015625,-1.234375 0.078125,0 0.25,0 0.25,0.3125 0,0.25 -0.109375,0.515625 -0.171875,0.703125 -0.40625,1.0625 -0.578125,1.625 -0.578125,2.09375 0,0.890625 0.625,1.1875 1.21875,1.1875 0.390625,0 0.71875,-0.171875 1,-0.453125 -0.125,0.515625 -0.25,1.015625 -0.640625,1.546875 -0.265625,0.328125 -0.640625,0.625 -1.09375,0.625 -0.140625,0 -0.59375,-0.03125 -0.765625,-0.421875 0.15625,0 0.296875,0 0.421875,-0.125 C 1.328125,1.203125 1.421875,1.0625 1.421875,0.875 1.421875,0.5625 1.15625,0.53125 1.0625,0.53125 0.828125,0.53125 0.5,0.6875 0.5,1.171875 c 0,0.5 0.4375,0.875 1.0625,0.875 1.015625,0 2.046875,-0.90625 2.328125,-2.03125 z m 0,0"
               id="id-db5ed760-7a19-47a8-9bfa-90c2f3684c94" />
          </symbol>
        </g>
      </defs>
      <g
         id="id-c6359f6b-f933-47b1-b53e-4bf0077603ae"
         transform="translate(-149.009,-130.359)">
        <g
           style="fill:#000000"
           id="id-aceb01b5-5942-4598-b752-752eed08dd07">
          <g
             id="id-7c45e3b1-c95c-4ac9-b05e-0f3ba5d39adf"
             transform="translate(148.712,134.765)">
            <path
               style="color:#000000;-inkscape-stroke:none"
               d="m 4.84375,-3.796875 c 0.046875,-0.140625 0.046875,-0.15625 0.046875,-0.234375 0,-0.171875 -0.140625,-0.265625 -0.296875,-0.265625 -0.09375,0 -0.25,0.0625 -0.34375,0.203125 -0.015625,0.0625 -0.109375,0.359375 -0.140625,0.546875 -0.078125,0.25 -0.140625,0.53125 -0.203125,0.796875 l -0.453125,1.796875 c -0.03125,0.140625 -0.46875,0.84375 -1.125,0.84375 -0.5,0 -0.609375,-0.4375 -0.609375,-0.8125 C 1.71875,-1.375 1.890625,-2 2.21875,-2.875 2.375,-3.28125 2.421875,-3.390625 2.421875,-3.59375 c 0,-0.4375 -0.3125,-0.8125 -0.8125,-0.8125 -0.953125,0 -1.3125,1.453125 -1.3125,1.53125 0,0.109375 0.09375,0.109375 0.109375,0.109375 0.109375,0 0.109375,-0.03125 0.15625,-0.1875 0.28125,-0.9375 0.671875,-1.234375 1.015625,-1.234375 0.078125,0 0.25,0 0.25,0.3125 0,0.25 -0.109375,0.515625 -0.171875,0.703125 -0.40625,1.0625 -0.578125,1.625 -0.578125,2.09375 0,0.890625 0.625,1.1875 1.21875,1.1875 0.390625,0 0.71875,-0.171875 1,-0.453125 -0.125,0.515625 -0.25,1.015625 -0.640625,1.546875 -0.265625,0.328125 -0.640625,0.625 -1.09375,0.625 -0.140625,0 -0.59375,-0.03125 -0.765625,-0.421875 0.15625,0 0.296875,0 0.421875,-0.125 C 1.328125,1.203125 1.421875,1.0625 1.421875,0.875 1.421875,0.5625 1.15625,0.53125 1.0625,0.53125 0.828125,0.53125 0.5,0.6875 0.5,1.171875 c 0,0.5 0.4375,0.875 1.0625,0.875 1.015625,0 2.046875,-0.90625 2.328125,-2.03125 z m 0,0"
               id="id-b63373ac-ab88-4746-b591-c6a41be3181c" />
          </g>
        </g>
      </g>
    </g>
    <path
       id="path896"
       style="fill:none;stroke:#1a1a1a;stroke-width:0.264583;stroke-linecap:round;stroke-linejoin:round;marker-mid:url(#marker1301)"
       d="m 65.247498,29.567856 c 15.572325,0 29.690053,6.227875 39.998322,16.32877 10.58654,10.373556 17.15518,24.83205 17.15518,40.824733"
       sodipodi:nodetypes="csc" />
    <path
       style="fill:none;stroke:#000000;stroke-width:0.264583px;stroke-linecap:butt;stroke-linejoin:miter;stroke-opacity:1;marker-mid:url(#Arrow1Mend)"
       d="M 65.247498,29.567857 91.676864,55.997223 122.401,86.721359"
       id="path2105"
       sodipodi:nodetypes="ccc" />
    <g
       transform="matrix(0.705556,0,0,0.705556,42.060292,26.871521)"
       ns0:version="1.4.0"
       ns0:texconverter="pdflatex"
       ns0:pdfconverter="inkscape"
       ns0:text="$A(0,1)$\n"
       ns0:preamble="default_packages.tex"
       ns0:scale="2.0"
       ns0:alignment="middle center"
       ns0:inkscapeversion="1.1"
       ns0:jacobian_sqrt="0.705556"
       id="g2787">
      <defs
         id="id-0d8930c4-b80e-45ee-8d89-de35c2993d3b">
        <g
           id="id-5b4b9453-041f-483d-a4c1-f4e5cf5290a8">
          <symbol
             overflow="visible"
             id="id-2029e708-6bc5-40ac-99d2-6be26398720c">
            <path
               style="stroke:none;stroke-width:0"
               d=""
               id="id-75a2ece3-5fbe-468e-8e52-99cfce9c1b7b" />
          </symbol>
          <symbol
             overflow="visible"
             id="id-ba9db895-6b04-48b2-af35-db2391173207">
            <path
               style="stroke:none;stroke-width:0"
               d="M 1.78125,-1.140625 C 1.390625,-0.484375 1,-0.34375 0.5625,-0.3125 0.4375,-0.296875 0.34375,-0.296875 0.34375,-0.109375 0.34375,-0.046875 0.40625,0 0.484375,0 0.75,0 1.0625,-0.03125 1.328125,-0.03125 c 0.34375,0 0.6875,0.03125 1,0.03125 0.0625,0 0.1875,0 0.1875,-0.1875 0,-0.109375 -0.078125,-0.125 -0.15625,-0.125 -0.21875,-0.015625 -0.46875,-0.09375 -0.46875,-0.34375 0,-0.125 0.0625,-0.234375 0.140625,-0.375 l 0.765625,-1.265625 h 2.5 c 0.015625,0.203125 0.15625,1.5625 0.15625,1.65625 0,0.296875 -0.515625,0.328125 -0.71875,0.328125 C 4.59375,-0.3125 4.5,-0.3125 4.5,-0.109375 4.5,0 4.609375,0 4.640625,0 5.046875,0 5.46875,-0.03125 5.875,-0.03125 6.125,-0.03125 6.765625,0 7.015625,0 7.0625,0 7.1875,0 7.1875,-0.203125 7.1875,-0.3125 7.09375,-0.3125 6.953125,-0.3125 6.34375,-0.3125 6.34375,-0.375 6.3125,-0.671875 l -0.609375,-6.21875 c -0.015625,-0.203125 -0.015625,-0.25 -0.1875,-0.25 -0.15625,0 -0.203125,0.078125 -0.265625,0.171875 z M 2.984375,-2.609375 4.9375,-5.90625 5.265625,-2.609375 Z m 0,0"
               id="id-872f6878-c80f-4f6d-b126-1e61c069fcad" />
          </symbol>
          <symbol
             overflow="visible"
             id="id-07e19b55-1adf-422e-83aa-646c61d829e4">
            <path
               style="stroke:none;stroke-width:0"
               d="m 2.03125,-0.015625 c 0,-0.65625 -0.25,-1.046875 -0.640625,-1.046875 -0.328125,0 -0.53125,0.25 -0.53125,0.53125 C 0.859375,-0.265625 1.0625,0 1.390625,0 1.5,0 1.640625,-0.046875 1.734375,-0.125 1.765625,-0.15625 1.78125,-0.15625 1.78125,-0.15625 c 0.015625,0 0.015625,0 0.015625,0.140625 0,0.75 -0.34375,1.34375 -0.671875,1.671875 -0.109375,0.109375 -0.109375,0.125 -0.109375,0.15625 0,0.078125 0.046875,0.109375 0.09375,0.109375 0.109375,0 0.921875,-0.765625 0.921875,-1.9375 z m 0,0"
               id="id-63ebd36d-ceb9-4eca-92d8-e412080675db" />
          </symbol>
          <symbol
             overflow="visible"
             id="id-a5762e1b-8ab0-45e4-9509-820f1a27106c">
            <path
               style="stroke:none;stroke-width:0"
               d=""
               id="id-8515146f-8dc9-4d2c-9fb6-68d622631cb8" />
          </symbol>
          <symbol
             overflow="visible"
             id="id-0bb7e279-383b-4fbd-b58a-d121e9218a2b">
            <path
               style="stroke:none;stroke-width:0"
               d="m 3.296875,2.390625 c 0,-0.03125 0,-0.046875 -0.171875,-0.21875 C 1.890625,0.921875 1.5625,-0.96875 1.5625,-2.5 c 0,-1.734375 0.375,-3.46875 1.609375,-4.703125 0.125,-0.125 0.125,-0.140625 0.125,-0.171875 0,-0.078125 -0.03125,-0.109375 -0.09375,-0.109375 -0.109375,0 -1,0.6875 -1.59375,1.953125 -0.5,1.09375 -0.625,2.203125 -0.625,3.03125 0,0.78125 0.109375,1.984375 0.65625,3.125 C 2.25,1.84375 3.09375,2.5 3.203125,2.5 c 0.0625,0 0.09375,-0.03125 0.09375,-0.109375 z m 0,0"
               id="id-7dbfb2b6-ceb1-4311-936f-b1183bf1e419" />
          </symbol>
          <symbol
             overflow="visible"
             id="id-7384467b-94bf-445b-a216-e556f1e0e4a9">
            <path
               style="stroke:none;stroke-width:0"
               d="m 4.578125,-3.1875 c 0,-0.796875 -0.046875,-1.59375 -0.390625,-2.328125 -0.453125,-0.96875 -1.28125,-1.125 -1.6875,-1.125 -0.609375,0 -1.328125,0.265625 -1.75,1.1875 -0.3125,0.6875 -0.359375,1.46875 -0.359375,2.265625 0,0.75 0.03125,1.640625 0.453125,2.40625 0.421875,0.796875 1.15625,1 1.640625,1 0.53125,0 1.296875,-0.203125 1.734375,-1.15625 0.3125,-0.6875 0.359375,-1.46875 0.359375,-2.25 z M 2.484375,0 C 2.09375,0 1.5,-0.25 1.328125,-1.203125 1.21875,-1.796875 1.21875,-2.71875 1.21875,-3.3125 c 0,-0.640625 0,-1.296875 0.078125,-1.828125 0.1875,-1.1875 0.9375,-1.28125 1.1875,-1.28125 0.328125,0 0.984375,0.1875 1.171875,1.171875 0.109375,0.5625 0.109375,1.3125 0.109375,1.9375 0,0.75 0,1.421875 -0.109375,2.0625 C 3.5,-0.296875 2.9375,0 2.484375,0 Z m 0,0"
               id="id-7a26f7ad-a63b-43b8-ab53-b8b14cbc799c" />
          </symbol>
          <symbol
             overflow="visible"
             id="id-57e8c332-9710-40bb-adb3-4fedc5017167">
            <path
               style="stroke:none;stroke-width:0"
               d="m 2.9375,-6.375 c 0,-0.25 0,-0.265625 -0.234375,-0.265625 C 2.078125,-6 1.203125,-6 0.890625,-6 v 0.3125 c 0.203125,0 0.78125,0 1.296875,-0.265625 v 5.171875 c 0,0.359375 -0.03125,0.46875 -0.921875,0.46875 h -0.3125 V 0 c 0.34375,-0.03125 1.203125,-0.03125 1.609375,-0.03125 0.390625,0 1.265625,0 1.609375,0.03125 v -0.3125 h -0.3125 c -0.90625,0 -0.921875,-0.109375 -0.921875,-0.46875 z m 0,0"
               id="id-983f5b2e-2c23-4992-8469-a6c7c823c40f" />
          </symbol>
          <symbol
             overflow="visible"
             id="id-28f6060a-f159-41c7-b371-c0c676386895">
            <path
               style="stroke:none;stroke-width:0"
               d="m 2.875,-2.5 c 0,-0.765625 -0.109375,-1.96875 -0.65625,-3.109375 -0.59375,-1.21875 -1.453125,-1.875 -1.546875,-1.875 -0.0625,0 -0.109375,0.046875 -0.109375,0.109375 0,0.03125 0,0.046875 0.1875,0.234375 0.984375,0.984375 1.546875,2.5625 1.546875,4.640625 0,1.71875 -0.359375,3.46875 -1.59375,4.71875 C 0.5625,2.34375 0.5625,2.359375 0.5625,2.390625 0.5625,2.453125 0.609375,2.5 0.671875,2.5 0.765625,2.5 1.671875,1.8125 2.25,0.546875 2.765625,-0.546875 2.875,-1.65625 2.875,-2.5 Z m 0,0"
               id="id-4a107d53-2205-48c9-8bbc-31f775355e56" />
          </symbol>
        </g>
      </defs>
      <g
         id="id-005183e4-f51d-4161-a21b-e1bfc4be07e2"
         transform="translate(-149.056,-127.281)">
        <g
           style="fill:#000000"
           id="id-f40684be-8828-4a99-bf67-e56ca2a5204e">
          <g
             id="id-9601c21e-28e6-4cdc-9f89-5cc7c4e15c5b"
             transform="translate(148.712,134.765)">
            <path
               style="color:#000000;-inkscape-stroke:none"
               d="M 1.78125,-1.140625 C 1.390625,-0.484375 1,-0.34375 0.5625,-0.3125 0.4375,-0.296875 0.34375,-0.296875 0.34375,-0.109375 0.34375,-0.046875 0.40625,0 0.484375,0 0.75,0 1.0625,-0.03125 1.328125,-0.03125 c 0.34375,0 0.6875,0.03125 1,0.03125 0.0625,0 0.1875,0 0.1875,-0.1875 0,-0.109375 -0.078125,-0.125 -0.15625,-0.125 -0.21875,-0.015625 -0.46875,-0.09375 -0.46875,-0.34375 0,-0.125 0.0625,-0.234375 0.140625,-0.375 l 0.765625,-1.265625 h 2.5 c 0.015625,0.203125 0.15625,1.5625 0.15625,1.65625 0,0.296875 -0.515625,0.328125 -0.71875,0.328125 C 4.59375,-0.3125 4.5,-0.3125 4.5,-0.109375 4.5,0 4.609375,0 4.640625,0 5.046875,0 5.46875,-0.03125 5.875,-0.03125 6.125,-0.03125 6.765625,0 7.015625,0 7.0625,0 7.1875,0 7.1875,-0.203125 7.1875,-0.3125 7.09375,-0.3125 6.953125,-0.3125 6.34375,-0.3125 6.34375,-0.375 6.3125,-0.671875 l -0.609375,-6.21875 c -0.015625,-0.203125 -0.015625,-0.25 -0.1875,-0.25 -0.15625,0 -0.203125,0.078125 -0.265625,0.171875 z M 2.984375,-2.609375 4.9375,-5.90625 5.265625,-2.609375 Z m 0,0"
               id="id-e8a0763a-1fdb-404a-9ad9-2a518d390255" />
          </g>
        </g>
        <g
           style="fill:#000000"
           id="id-74c69463-1c26-40a1-b21c-03d2049a5480">
          <g
             id="id-74b372a5-0349-4ba6-8388-645272290d1c"
             transform="translate(156.184,134.765)">
            <path
               style="color:#000000;-inkscape-stroke:none"
               d="m 3.296875,2.390625 c 0,-0.03125 0,-0.046875 -0.171875,-0.21875 C 1.890625,0.921875 1.5625,-0.96875 1.5625,-2.5 c 0,-1.734375 0.375,-3.46875 1.609375,-4.703125 0.125,-0.125 0.125,-0.140625 0.125,-0.171875 0,-0.078125 -0.03125,-0.109375 -0.09375,-0.109375 -0.109375,0 -1,0.6875 -1.59375,1.953125 -0.5,1.09375 -0.625,2.203125 -0.625,3.03125 0,0.78125 0.109375,1.984375 0.65625,3.125 C 2.25,1.84375 3.09375,2.5 3.203125,2.5 c 0.0625,0 0.09375,-0.03125 0.09375,-0.109375 z m 0,0"
               id="id-9f7b8821-77dd-48b5-b745-46f27f180cab" />
          </g>
          <g
             id="id-2e4b7670-3784-4f10-9f3c-803f222bf4bd"
             transform="translate(160.058,134.765)">
            <path
               style="color:#000000;-inkscape-stroke:none"
               d="m 4.578125,-3.1875 c 0,-0.796875 -0.046875,-1.59375 -0.390625,-2.328125 -0.453125,-0.96875 -1.28125,-1.125 -1.6875,-1.125 -0.609375,0 -1.328125,0.265625 -1.75,1.1875 -0.3125,0.6875 -0.359375,1.46875 -0.359375,2.265625 0,0.75 0.03125,1.640625 0.453125,2.40625 0.421875,0.796875 1.15625,1 1.640625,1 0.53125,0 1.296875,-0.203125 1.734375,-1.15625 0.3125,-0.6875 0.359375,-1.46875 0.359375,-2.25 z M 2.484375,0 C 2.09375,0 1.5,-0.25 1.328125,-1.203125 1.21875,-1.796875 1.21875,-2.71875 1.21875,-3.3125 c 0,-0.640625 0,-1.296875 0.078125,-1.828125 0.1875,-1.1875 0.9375,-1.28125 1.1875,-1.28125 0.328125,0 0.984375,0.1875 1.171875,1.171875 0.109375,0.5625 0.109375,1.3125 0.109375,1.9375 0,0.75 0,1.421875 -0.109375,2.0625 C 3.5,-0.296875 2.9375,0 2.484375,0 Z m 0,0"
               id="id-b1347398-0d92-4488-8e69-b698b58c2ea4" />
          </g>
        </g>
        <g
           style="fill:#000000"
           id="id-88b72037-ddeb-484b-934f-621e91034fbb">
          <g
             id="id-c8919263-159a-4ae7-813e-b7ccd6681a7a"
             transform="translate(165.04,134.765)">
            <path
               style="color:#000000;-inkscape-stroke:none"
               d="m 2.03125,-0.015625 c 0,-0.65625 -0.25,-1.046875 -0.640625,-1.046875 -0.328125,0 -0.53125,0.25 -0.53125,0.53125 C 0.859375,-0.265625 1.0625,0 1.390625,0 1.5,0 1.640625,-0.046875 1.734375,-0.125 1.765625,-0.15625 1.78125,-0.15625 1.78125,-0.15625 c 0.015625,0 0.015625,0 0.015625,0.140625 0,0.75 -0.34375,1.34375 -0.671875,1.671875 -0.109375,0.109375 -0.109375,0.125 -0.109375,0.15625 0,0.078125 0.046875,0.109375 0.09375,0.109375 0.109375,0 0.921875,-0.765625 0.921875,-1.9375 z m 0,0"
               id="id-e19abbc0-7df3-480a-9b72-184a15ee584f" />
          </g>
        </g>
        <g
           style="fill:#000000"
           id="id-47077eea-8a47-41be-9c50-45bee9212282">
          <g
             id="id-a693c211-b0e6-4397-8061-5f939e386510"
             transform="translate(169.468,134.765)">
            <path
               style="color:#000000;-inkscape-stroke:none"
               d="m 2.9375,-6.375 c 0,-0.25 0,-0.265625 -0.234375,-0.265625 C 2.078125,-6 1.203125,-6 0.890625,-6 v 0.3125 c 0.203125,0 0.78125,0 1.296875,-0.265625 v 5.171875 c 0,0.359375 -0.03125,0.46875 -0.921875,0.46875 h -0.3125 V 0 c 0.34375,-0.03125 1.203125,-0.03125 1.609375,-0.03125 0.390625,0 1.265625,0 1.609375,0.03125 v -0.3125 h -0.3125 c -0.90625,0 -0.921875,-0.109375 -0.921875,-0.46875 z m 0,0"
               id="id-be57f218-73ae-4073-91c1-8d1a07be56dc" />
          </g>
          <g
             id="id-4edabd1d-2e63-4897-893e-957c5e455239"
             transform="translate(174.449,134.765)">
            <path
               style="color:#000000;-inkscape-stroke:none"
               d="m 2.875,-2.5 c 0,-0.765625 -0.109375,-1.96875 -0.65625,-3.109375 -0.59375,-1.21875 -1.453125,-1.875 -1.546875,-1.875 -0.0625,0 -0.109375,0.046875 -0.109375,0.109375 0,0.03125 0,0.046875 0.1875,0.234375 0.984375,0.984375 1.546875,2.5625 1.546875,4.640625 0,1.71875 -0.359375,3.46875 -1.59375,4.71875 C 0.5625,2.34375 0.5625,2.359375 0.5625,2.390625 0.5625,2.453125 0.609375,2.5 0.671875,2.5 0.765625,2.5 1.671875,1.8125 2.25,0.546875 2.765625,-0.546875 2.875,-1.65625 2.875,-2.5 Z m 0,0"
               id="id-84f57cc2-64a6-4391-839d-f8949a7f2798" />
          </g>
        </g>
      </g>
    </g>
    <g
       transform="matrix(0.705556,0,0,0.705556,114.56259,88.980533)"
       ns0:version="1.4.0"
       ns0:texconverter="pdflatex"
       ns0:pdfconverter="inkscape"
       ns0:text="$B(1,0)$\n"
       ns0:preamble="default_packages.tex"
       ns0:scale="2.0"
       ns0:alignment="middle center"
       ns0:inkscapeversion="1.1"
       ns0:jacobian_sqrt="0.705556"
       id="g3053">
      <defs
         id="id-1f5aee1f-a4aa-4f76-9ba3-54e27b0ce55a">
        <g
           id="id-1392ea98-d64a-4c2f-b464-6c3588b7665a">
          <symbol
             overflow="visible"
             id="id-10a110dd-5757-47cf-a086-84f6aec062b1">
            <path
               style="stroke:none;stroke-width:0"
               d=""
               id="id-87658dc0-33d0-469a-a0cb-d6e880e4ceb3" />
          </symbol>
          <symbol
             overflow="visible"
             id="id-26e74454-57cf-4493-9ebe-4f514609f8f4">
            <path
               style="stroke:none;stroke-width:0"
               d="M 1.59375,-0.78125 C 1.5,-0.390625 1.46875,-0.3125 0.6875,-0.3125 c -0.171875,0 -0.265625,0 -0.265625,0.203125 C 0.421875,0 0.515625,0 0.6875,0 H 4.25 C 5.828125,0 7,-1.171875 7,-2.15625 7,-2.875 6.421875,-3.453125 5.453125,-3.5625 6.484375,-3.75 7.53125,-4.484375 7.53125,-5.4375 c 0,-0.734375 -0.65625,-1.375 -1.84375,-1.375 H 2.328125 c -0.1875,0 -0.28125,0 -0.28125,0.203125 0,0.109375 0.09375,0.109375 0.28125,0.109375 0.015625,0 0.203125,0 0.375,0.015625 0.171875,0.03125 0.265625,0.03125 0.265625,0.171875 0,0.03125 -0.015625,0.0625 -0.03125,0.1875 z m 1.5,-2.875 0.625,-2.46875 C 3.8125,-6.46875 3.828125,-6.5 4.25,-6.5 h 1.296875 c 0.875,0 1.078125,0.59375 1.078125,1.03125 0,0.875 -0.859375,1.8125 -2.0625,1.8125 z m -0.4375,3.34375 c -0.140625,0 -0.15625,0 -0.21875,0 -0.109375,-0.015625 -0.140625,-0.03125 -0.140625,-0.109375 0,-0.03125 0,-0.046875 0.0625,-0.21875 l 0.6875,-2.78125 h 1.875 c 0.953125,0 1.15625,0.734375 1.15625,1.15625 C 6.078125,-1.28125 5.1875,-0.3125 4,-0.3125 Z m 0,0"
               id="id-7fccb4fb-38d7-4880-b607-bae898ce5715" />
          </symbol>
          <symbol
             overflow="visible"
             id="id-12b521b5-28b4-4629-9b73-03a34353e4db">
            <path
               style="stroke:none;stroke-width:0"
               d="m 2.03125,-0.015625 c 0,-0.65625 -0.25,-1.046875 -0.640625,-1.046875 -0.328125,0 -0.53125,0.25 -0.53125,0.53125 C 0.859375,-0.265625 1.0625,0 1.390625,0 1.5,0 1.640625,-0.046875 1.734375,-0.125 1.765625,-0.15625 1.78125,-0.15625 1.78125,-0.15625 c 0.015625,0 0.015625,0 0.015625,0.140625 0,0.75 -0.34375,1.34375 -0.671875,1.671875 -0.109375,0.109375 -0.109375,0.125 -0.109375,0.15625 0,0.078125 0.046875,0.109375 0.09375,0.109375 0.109375,0 0.921875,-0.765625 0.921875,-1.9375 z m 0,0"
               id="id-4c07950b-8596-4a66-872e-ce924f47efba" />
          </symbol>
          <symbol
             overflow="visible"
             id="id-eaee035a-dba5-47b3-9651-59ef14f3c513">
            <path
               style="stroke:none;stroke-width:0"
               d=""
               id="id-0c3c966d-d0ad-4824-8be3-1df68ebeb1e1" />
          </symbol>
          <symbol
             overflow="visible"
             id="id-c6457633-389c-4239-bfa5-22ffa18f4af0">
            <path
               style="stroke:none;stroke-width:0"
               d="m 3.296875,2.390625 c 0,-0.03125 0,-0.046875 -0.171875,-0.21875 C 1.890625,0.921875 1.5625,-0.96875 1.5625,-2.5 c 0,-1.734375 0.375,-3.46875 1.609375,-4.703125 0.125,-0.125 0.125,-0.140625 0.125,-0.171875 0,-0.078125 -0.03125,-0.109375 -0.09375,-0.109375 -0.109375,0 -1,0.6875 -1.59375,1.953125 -0.5,1.09375 -0.625,2.203125 -0.625,3.03125 0,0.78125 0.109375,1.984375 0.65625,3.125 C 2.25,1.84375 3.09375,2.5 3.203125,2.5 c 0.0625,0 0.09375,-0.03125 0.09375,-0.109375 z m 0,0"
               id="id-d6fc19d1-2771-4a85-84c0-5b2f3b1f0358" />
          </symbol>
          <symbol
             overflow="visible"
             id="id-db07cd39-06bd-4387-afac-3fe798cd87df">
            <path
               style="stroke:none;stroke-width:0"
               d="m 2.9375,-6.375 c 0,-0.25 0,-0.265625 -0.234375,-0.265625 C 2.078125,-6 1.203125,-6 0.890625,-6 v 0.3125 c 0.203125,0 0.78125,0 1.296875,-0.265625 v 5.171875 c 0,0.359375 -0.03125,0.46875 -0.921875,0.46875 h -0.3125 V 0 c 0.34375,-0.03125 1.203125,-0.03125 1.609375,-0.03125 0.390625,0 1.265625,0 1.609375,0.03125 v -0.3125 h -0.3125 c -0.90625,0 -0.921875,-0.109375 -0.921875,-0.46875 z m 0,0"
               id="id-5f8ac43d-57fc-4072-a1f3-e3e55f9e098f" />
          </symbol>
          <symbol
             overflow="visible"
             id="id-5049d41e-b6d4-403d-af79-6839b6d3fefa">
            <path
               style="stroke:none;stroke-width:0"
               d="m 4.578125,-3.1875 c 0,-0.796875 -0.046875,-1.59375 -0.390625,-2.328125 -0.453125,-0.96875 -1.28125,-1.125 -1.6875,-1.125 -0.609375,0 -1.328125,0.265625 -1.75,1.1875 -0.3125,0.6875 -0.359375,1.46875 -0.359375,2.265625 0,0.75 0.03125,1.640625 0.453125,2.40625 0.421875,0.796875 1.15625,1 1.640625,1 0.53125,0 1.296875,-0.203125 1.734375,-1.15625 0.3125,-0.6875 0.359375,-1.46875 0.359375,-2.25 z M 2.484375,0 C 2.09375,0 1.5,-0.25 1.328125,-1.203125 1.21875,-1.796875 1.21875,-2.71875 1.21875,-3.3125 c 0,-0.640625 0,-1.296875 0.078125,-1.828125 0.1875,-1.1875 0.9375,-1.28125 1.1875,-1.28125 0.328125,0 0.984375,0.1875 1.171875,1.171875 0.109375,0.5625 0.109375,1.3125 0.109375,1.9375 0,0.75 0,1.421875 -0.109375,2.0625 C 3.5,-0.296875 2.9375,0 2.484375,0 Z m 0,0"
               id="id-9830ce28-4564-46d5-a508-730efc0d5f92" />
          </symbol>
          <symbol
             overflow="visible"
             id="id-94f1c6b7-6422-428a-a70f-f959869e71b6">
            <path
               style="stroke:none;stroke-width:0"
               d="m 2.875,-2.5 c 0,-0.765625 -0.109375,-1.96875 -0.65625,-3.109375 -0.59375,-1.21875 -1.453125,-1.875 -1.546875,-1.875 -0.0625,0 -0.109375,0.046875 -0.109375,0.109375 0,0.03125 0,0.046875 0.1875,0.234375 0.984375,0.984375 1.546875,2.5625 1.546875,4.640625 0,1.71875 -0.359375,3.46875 -1.59375,4.71875 C 0.5625,2.34375 0.5625,2.359375 0.5625,2.390625 0.5625,2.453125 0.609375,2.5 0.671875,2.5 0.765625,2.5 1.671875,1.8125 2.25,0.546875 2.765625,-0.546875 2.875,-1.65625 2.875,-2.5 Z m 0,0"
               id="id-2e3c706e-273a-4d7b-a614-d303d3590ca0" />
          </symbol>
        </g>
      </defs>
      <g
         id="id-2f20faa8-affc-4535-a30f-d810df028228"
         transform="translate(-149.134,-127.281)">
        <g
           style="fill:#000000"
           id="id-7d1ed181-43bc-466a-9bbd-799c73bc3f7e">
          <g
             id="id-e000f0ef-db4e-4808-a828-1bbf01ca1ded"
             transform="translate(148.712,134.765)">
            <path
               style="color:#000000;-inkscape-stroke:none"
               d="M 1.59375,-0.78125 C 1.5,-0.390625 1.46875,-0.3125 0.6875,-0.3125 c -0.171875,0 -0.265625,0 -0.265625,0.203125 C 0.421875,0 0.515625,0 0.6875,0 H 4.25 C 5.828125,0 7,-1.171875 7,-2.15625 7,-2.875 6.421875,-3.453125 5.453125,-3.5625 6.484375,-3.75 7.53125,-4.484375 7.53125,-5.4375 c 0,-0.734375 -0.65625,-1.375 -1.84375,-1.375 H 2.328125 c -0.1875,0 -0.28125,0 -0.28125,0.203125 0,0.109375 0.09375,0.109375 0.28125,0.109375 0.015625,0 0.203125,0 0.375,0.015625 0.171875,0.03125 0.265625,0.03125 0.265625,0.171875 0,0.03125 -0.015625,0.0625 -0.03125,0.1875 z m 1.5,-2.875 0.625,-2.46875 C 3.8125,-6.46875 3.828125,-6.5 4.25,-6.5 h 1.296875 c 0.875,0 1.078125,0.59375 1.078125,1.03125 0,0.875 -0.859375,1.8125 -2.0625,1.8125 z m -0.4375,3.34375 c -0.140625,0 -0.15625,0 -0.21875,0 -0.109375,-0.015625 -0.140625,-0.03125 -0.140625,-0.109375 0,-0.03125 0,-0.046875 0.0625,-0.21875 l 0.6875,-2.78125 h 1.875 c 0.953125,0 1.15625,0.734375 1.15625,1.15625 C 6.078125,-1.28125 5.1875,-0.3125 4,-0.3125 Z m 0,0"
               id="id-fd627e47-b0b7-42cb-bc99-14c36590667e" />
          </g>
        </g>
        <g
           style="fill:#000000"
           id="id-26eb5845-777f-476c-aef7-dbac7c722b8a">
          <g
             id="id-86d3be27-0b10-4e2e-9a1f-35ca302bfd83"
             transform="translate(156.769,134.765)">
            <path
               style="color:#000000;-inkscape-stroke:none"
               d="m 3.296875,2.390625 c 0,-0.03125 0,-0.046875 -0.171875,-0.21875 C 1.890625,0.921875 1.5625,-0.96875 1.5625,-2.5 c 0,-1.734375 0.375,-3.46875 1.609375,-4.703125 0.125,-0.125 0.125,-0.140625 0.125,-0.171875 0,-0.078125 -0.03125,-0.109375 -0.09375,-0.109375 -0.109375,0 -1,0.6875 -1.59375,1.953125 -0.5,1.09375 -0.625,2.203125 -0.625,3.03125 0,0.78125 0.109375,1.984375 0.65625,3.125 C 2.25,1.84375 3.09375,2.5 3.203125,2.5 c 0.0625,0 0.09375,-0.03125 0.09375,-0.109375 z m 0,0"
               id="id-e64a267f-c94d-41a7-8f6f-041196ad8b74" />
          </g>
          <g
             id="id-1cffc12c-3a93-4e8b-8fc9-8e2bfee69870"
             transform="translate(160.643,134.765)">
            <path
               style="color:#000000;-inkscape-stroke:none"
               d="m 2.9375,-6.375 c 0,-0.25 0,-0.265625 -0.234375,-0.265625 C 2.078125,-6 1.203125,-6 0.890625,-6 v 0.3125 c 0.203125,0 0.78125,0 1.296875,-0.265625 v 5.171875 c 0,0.359375 -0.03125,0.46875 -0.921875,0.46875 h -0.3125 V 0 c 0.34375,-0.03125 1.203125,-0.03125 1.609375,-0.03125 0.390625,0 1.265625,0 1.609375,0.03125 v -0.3125 h -0.3125 c -0.90625,0 -0.921875,-0.109375 -0.921875,-0.46875 z m 0,0"
               id="id-666fe563-5cc0-4c40-9081-a118ec798e5e" />
          </g>
        </g>
        <g
           style="fill:#000000"
           id="id-ea6d0000-d497-4106-a3b7-cc0f0cb9d946">
          <g
             id="id-2122efd2-d79b-4094-9464-7ed47c193568"
             transform="translate(165.625,134.765)">
            <path
               style="color:#000000;-inkscape-stroke:none"
               d="m 2.03125,-0.015625 c 0,-0.65625 -0.25,-1.046875 -0.640625,-1.046875 -0.328125,0 -0.53125,0.25 -0.53125,0.53125 C 0.859375,-0.265625 1.0625,0 1.390625,0 1.5,0 1.640625,-0.046875 1.734375,-0.125 1.765625,-0.15625 1.78125,-0.15625 1.78125,-0.15625 c 0.015625,0 0.015625,0 0.015625,0.140625 0,0.75 -0.34375,1.34375 -0.671875,1.671875 -0.109375,0.109375 -0.109375,0.125 -0.109375,0.15625 0,0.078125 0.046875,0.109375 0.09375,0.109375 0.109375,0 0.921875,-0.765625 0.921875,-1.9375 z m 0,0"
               id="id-58783743-7256-4256-814b-cb0b3587af66" />
          </g>
        </g>
        <g
           style="fill:#000000"
           id="id-286ea5bf-73d8-4eb6-99a5-0a0ec6c3ca58">
          <g
             id="id-26b19a3a-88d4-44c2-88c5-964c9d6bad1f"
             transform="translate(170.052,134.765)">
            <path
               style="color:#000000;-inkscape-stroke:none"
               d="m 4.578125,-3.1875 c 0,-0.796875 -0.046875,-1.59375 -0.390625,-2.328125 -0.453125,-0.96875 -1.28125,-1.125 -1.6875,-1.125 -0.609375,0 -1.328125,0.265625 -1.75,1.1875 -0.3125,0.6875 -0.359375,1.46875 -0.359375,2.265625 0,0.75 0.03125,1.640625 0.453125,2.40625 0.421875,0.796875 1.15625,1 1.640625,1 0.53125,0 1.296875,-0.203125 1.734375,-1.15625 0.3125,-0.6875 0.359375,-1.46875 0.359375,-2.25 z M 2.484375,0 C 2.09375,0 1.5,-0.25 1.328125,-1.203125 1.21875,-1.796875 1.21875,-2.71875 1.21875,-3.3125 c 0,-0.640625 0,-1.296875 0.078125,-1.828125 0.1875,-1.1875 0.9375,-1.28125 1.1875,-1.28125 0.328125,0 0.984375,0.1875 1.171875,1.171875 0.109375,0.5625 0.109375,1.3125 0.109375,1.9375 0,0.75 0,1.421875 -0.109375,2.0625 C 3.5,-0.296875 2.9375,0 2.484375,0 Z m 0,0"
               id="id-3eab533f-7ae1-42e0-850b-a6bc0311fcdd" />
          </g>
          <g
             id="id-01f57059-6aa6-4a9d-8601-204193c5d679"
             transform="translate(175.033,134.765)">
            <path
               style="color:#000000;-inkscape-stroke:none"
               d="m 2.875,-2.5 c 0,-0.765625 -0.109375,-1.96875 -0.65625,-3.109375 -0.59375,-1.21875 -1.453125,-1.875 -1.546875,-1.875 -0.0625,0 -0.109375,0.046875 -0.109375,0.109375 0,0.03125 0,0.046875 0.1875,0.234375 0.984375,0.984375 1.546875,2.5625 1.546875,4.640625 0,1.71875 -0.359375,3.46875 -1.59375,4.71875 C 0.5625,2.34375 0.5625,2.359375 0.5625,2.390625 0.5625,2.453125 0.609375,2.5 0.671875,2.5 0.765625,2.5 1.671875,1.8125 2.25,0.546875 2.765625,-0.546875 2.875,-1.65625 2.875,-2.5 Z m 0,0"
               id="id-10421565-4e6c-402b-b457-57a5ed7dfe50" />
          </g>
        </g>
      </g>
    </g>
  </g>
</svg>
